<?xml version="1.0" encoding="utf-8"?>
<svg version="1.1" id="Layer_1" xmlns="http://www.w3.org/2000/svg" xmlns:xlink="http://www.w3.org/1999/xlink" x="0px" y="0px"
	 viewBox="0 0 4999.999 5000" enable-background="new 0 0 4999.999 5000" xml:space="preserve">
<g>
	<g>
		<g>
			<polygon points="2499.12,2510.075 2498.899,2506.922 2502.273,2509.855 			"/>
		</g>
		<g>
			<polygon points="2502.276,2509.854 2501.092,2506.923 2505.207,2508.67 			"/>
		</g>
		<g>
			<polygon points="2505.21,2508.668 2503.178,2506.247 2507.631,2506.636 			"/>
		</g>
		<g>
			<polygon points="2507.633,2506.634 2504.952,2504.959 2509.308,2503.953 			"/>
		</g>
		<g>
			<polygon points="2509.31,2503.95 2506.242,2503.186 2510.074,2500.883 			"/>
		</g>
		<g>
			<polygon points="2510.075,2500.88 2506.921,2501.1 2509.854,2497.727 			"/>
		</g>
		<g>
			<polygon points="2509.854,2497.723 2506.923,2498.908 2508.669,2494.792 			"/>
		</g>
		<g>
			<polygon points="2508.668,2494.79 2506.246,2496.822 2506.636,2492.368 			"/>
		</g>
		<g>
			<polygon points="2506.633,2492.366 2504.958,2495.047 2503.953,2490.691 			"/>
		</g>
		<g>
			<polygon points="2503.95,2490.69 2503.185,2493.757 2500.883,2489.925 			"/>
		</g>
		<g>
			<polygon points="2500.879,2489.925 2501.1,2493.078 2497.726,2490.145 			"/>
		</g>
		<g>
			<polygon points="2497.723,2490.146 2498.907,2493.077 2494.792,2491.33 			"/>
		</g>
		<g>
			<polygon points="2494.789,2491.332 2496.821,2493.753 2492.368,2493.364 			"/>
		</g>
		<g>
			<polygon points="2492.366,2493.366 2495.047,2495.041 2490.691,2496.047 			"/>
		</g>
		<g>
			<polygon points="2490.689,2496.05 2493.757,2496.814 2489.925,2499.117 			"/>
		</g>
		<g>
			<polygon points="2489.924,2499.12 2493.078,2498.9 2490.145,2502.273 			"/>
		</g>
		<g>
			<polygon points="2490.146,2502.277 2493.077,2501.092 2491.33,2505.208 			"/>
		</g>
		<g>
			<polygon points="2491.331,2505.21 2493.753,2503.178 2493.363,2507.632 			"/>
		</g>
		<g>
			<polygon points="2493.366,2507.634 2495.041,2504.953 2496.046,2509.309 			"/>
		</g>
		<g>
			<polygon points="2496.049,2509.31 2496.814,2506.243 2499.116,2510.075 			"/>
		</g>
	</g>
	<g>
		<g>
			<polygon points="2502.284,2514.435 2502.284,2509.867 2497.716,2514.435 			"/>
		</g>
		<g>
			<polygon points="2497.711,2514.435 2499.123,2510.09 2493.366,2513.023 			"/>
		</g>
		<g>
			<polygon points="2493.363,2513.021 2496.048,2509.325 2489.667,2510.336 			"/>
		</g>
		<g>
			<polygon points="2489.664,2510.333 2493.359,2507.648 2486.979,2506.637 			"/>
		</g>
		<g>
			<polygon points="2486.977,2506.633 2491.321,2505.221 2485.565,2502.289 			"/>
		</g>
		<g>
			<polygon points="2485.564,2502.284 2490.132,2502.284 2485.564,2497.716 			"/>
		</g>
		<g>
			<polygon points="2485.565,2497.711 2489.909,2499.123 2486.977,2493.367 			"/>
		</g>
		<g>
			<polygon points="2486.979,2493.363 2490.674,2496.048 2489.664,2489.667 			"/>
		</g>
		<g>
			<polygon points="2489.667,2489.664 2492.352,2493.36 2493.363,2486.979 			"/>
		</g>
		<g>
			<polygon points="2493.366,2486.977 2494.778,2491.322 2497.711,2485.565 			"/>
		</g>
		<g>
			<polygon points="2497.716,2485.565 2497.716,2490.133 2502.284,2485.565 			"/>
		</g>
		<g>
			<polygon points="2502.288,2485.565 2500.876,2489.91 2506.633,2486.977 			"/>
		</g>
		<g>
			<polygon points="2506.636,2486.979 2503.951,2490.675 2510.332,2489.664 			"/>
		</g>
		<g>
			<polygon points="2510.335,2489.667 2506.64,2492.352 2513.021,2493.363 			"/>
		</g>
		<g>
			<polygon points="2513.022,2493.367 2508.678,2494.779 2514.434,2497.711 			"/>
		</g>
		<g>
			<polygon points="2514.435,2497.716 2509.867,2497.716 2514.435,2502.284 			"/>
		</g>
		<g>
			<polygon points="2514.434,2502.289 2510.09,2500.877 2513.022,2506.633 			"/>
		</g>
		<g>
			<polygon points="2513.021,2506.637 2509.325,2503.952 2510.335,2510.333 			"/>
		</g>
		<g>
			<polygon points="2510.332,2510.336 2507.647,2506.64 2506.636,2513.021 			"/>
		</g>
		<g>
			<polygon points="2506.633,2513.023 2505.221,2508.678 2502.288,2514.435 			"/>
		</g>
	</g>
	<g>
		<g>
			<polygon points="2498.162,2521.04 2497.702,2514.454 2504.747,2520.579 			"/>
		</g>
		<g>
			<polygon points="2504.754,2520.578 2502.281,2514.457 2510.874,2518.105 			"/>
		</g>
		<g>
			<polygon points="2510.88,2518.102 2506.636,2513.044 2515.937,2513.858 			"/>
		</g>
		<g>
			<polygon points="2515.941,2513.853 2510.343,2510.355 2519.439,2508.255 			"/>
		</g>
		<g>
			<polygon points="2519.442,2508.249 2513.036,2506.652 2521.039,2501.844 			"/>
		</g>
		<g>
			<polygon points="2521.039,2501.837 2514.454,2502.298 2520.579,2495.252 			"/>
		</g>
		<g>
			<polygon points="2520.577,2495.246 2514.457,2497.719 2518.104,2489.125 			"/>
		</g>
		<g>
			<polygon points="2518.101,2489.12 2513.044,2493.363 2513.858,2484.063 			"/>
		</g>
		<g>
			<polygon points="2513.853,2484.059 2510.355,2489.657 2508.255,2480.561 			"/>
		</g>
		<g>
			<polygon points="2508.249,2480.558 2506.652,2486.963 2501.844,2478.961 			"/>
		</g>
		<g>
			<polygon points="2501.837,2478.96 2502.298,2485.546 2495.252,2479.421 			"/>
		</g>
		<g>
			<polygon points="2495.246,2479.422 2497.719,2485.543 2489.125,2481.895 			"/>
		</g>
		<g>
			<polygon points="2489.119,2481.898 2493.363,2486.955 2484.063,2486.142 			"/>
		</g>
		<g>
			<polygon points="2484.058,2486.147 2489.656,2489.645 2480.56,2491.745 			"/>
		</g>
		<g>
			<polygon points="2480.557,2491.751 2486.963,2493.348 2478.96,2498.156 			"/>
		</g>
		<g>
			<polygon points="2478.96,2498.163 2485.545,2497.702 2479.42,2504.748 			"/>
		</g>
		<g>
			<polygon points="2479.422,2504.754 2485.542,2502.281 2481.895,2510.875 			"/>
		</g>
		<g>
			<polygon points="2481.898,2510.88 2486.955,2506.637 2486.141,2515.937 			"/>
		</g>
		<g>
			<polygon points="2486.146,2515.941 2489.644,2510.343 2491.744,2519.439 			"/>
		</g>
		<g>
			<polygon points="2491.75,2519.442 2493.347,2513.037 2498.156,2521.039 			"/>
		</g>
	</g>
	<g>
		<g>
			<polygon points="2504.769,2530.145 2504.769,2520.605 2495.23,2530.145 			"/>
		</g>
		<g>
			<polygon points="2495.22,2530.143 2498.168,2521.071 2486.148,2527.196 			"/>
		</g>
		<g>
			<polygon points="2486.14,2527.191 2491.747,2519.474 2478.422,2521.584 			"/>
		</g>
		<g>
			<polygon points="2478.416,2521.577 2486.133,2515.97 2472.808,2513.86 			"/>
		</g>
		<g>
			<polygon points="2472.804,2513.852 2481.877,2510.904 2469.856,2504.779 			"/>
		</g>
		<g>
			<polygon points="2469.855,2504.77 2479.394,2504.77 2469.855,2495.23 			"/>
		</g>
		<g>
			<polygon points="2469.856,2495.221 2478.929,2498.169 2472.804,2486.148 			"/>
		</g>
		<g>
			<polygon points="2472.808,2486.14 2480.526,2491.747 2478.416,2478.422 			"/>
		</g>
		<g>
			<polygon points="2478.422,2478.416 2484.029,2486.134 2486.14,2472.809 			"/>
		</g>
		<g>
			<polygon points="2486.148,2472.804 2489.096,2481.877 2495.221,2469.857 			"/>
		</g>
		<g>
			<polygon points="2495.23,2469.855 2495.23,2479.395 2504.769,2469.855 			"/>
		</g>
		<g>
			<polygon points="2504.779,2469.857 2501.831,2478.929 2513.851,2472.804 			"/>
		</g>
		<g>
			<polygon points="2513.859,2472.809 2508.252,2480.526 2521.577,2478.416 			"/>
		</g>
		<g>
			<polygon points="2521.583,2478.423 2513.866,2484.03 2527.191,2486.14 			"/>
		</g>
		<g>
			<polygon points="2527.195,2486.148 2518.122,2489.096 2530.143,2495.221 			"/>
		</g>
		<g>
			<polygon points="2530.144,2495.23 2520.605,2495.23 2530.144,2504.77 			"/>
		</g>
		<g>
			<polygon points="2530.143,2504.779 2521.07,2501.831 2527.195,2513.852 			"/>
		</g>
		<g>
			<polygon points="2527.191,2513.86 2519.473,2508.253 2521.584,2521.577 			"/>
		</g>
		<g>
			<polygon points="2521.577,2521.584 2515.97,2513.866 2513.859,2527.191 			"/>
		</g>
		<g>
			<polygon points="2513.851,2527.196 2510.903,2518.123 2504.779,2530.143 			"/>
		</g>
	</g>
	<g>
		<g>
			<polygon points="2496.162,2543.937 2495.201,2530.185 2509.914,2542.975 			"/>
		</g>
		<g>
			<polygon points="2509.927,2542.972 2504.763,2530.19 2522.709,2537.808 			"/>
		</g>
		<g>
			<polygon points="2522.72,2537.801 2513.859,2527.241 2533.281,2528.94 			"/>
		</g>
		<g>
			<polygon points="2533.29,2528.93 2521.599,2521.625 2540.595,2517.239 			"/>
		</g>
		<g>
			<polygon points="2540.6,2517.227 2527.224,2513.892 2543.935,2503.851 			"/>
		</g>
		<g>
			<polygon points="2543.936,2503.837 2530.184,2504.799 2542.975,2490.085 			"/>
		</g>
		<g>
			<polygon points="2542.971,2490.072 2530.19,2495.236 2537.807,2477.291 			"/>
		</g>
		<g>
			<polygon points="2537.801,2477.279 2527.24,2486.14 2528.939,2466.719 			"/>
		</g>
		<g>
			<polygon points="2528.929,2466.71 2521.624,2478.401 2517.239,2459.405 			"/>
		</g>
		<g>
			<polygon points="2517.226,2459.4 2513.891,2472.775 2503.85,2456.064 			"/>
		</g>
		<g>
			<polygon points="2503.837,2456.063 2504.798,2469.815 2490.085,2457.025 			"/>
		</g>
		<g>
			<polygon points="2490.072,2457.028 2495.236,2469.81 2477.29,2462.192 			"/>
		</g>
		<g>
			<polygon points="2477.279,2462.199 2486.14,2472.759 2466.718,2471.06 			"/>
		</g>
		<g>
			<polygon points="2466.709,2471.07 2478.4,2478.375 2459.404,2482.761 			"/>
		</g>
		<g>
			<polygon points="2459.399,2482.773 2472.775,2486.108 2456.064,2496.149 			"/>
		</g>
		<g>
			<polygon points="2456.063,2496.163 2469.815,2495.201 2457.025,2509.915 			"/>
		</g>
		<g>
			<polygon points="2457.028,2509.928 2469.809,2504.764 2462.192,2522.709 			"/>
		</g>
		<g>
			<polygon points="2462.199,2522.721 2472.759,2513.86 2471.06,2533.281 			"/>
		</g>
		<g>
			<polygon points="2471.07,2533.29 2478.375,2521.599 2482.761,2540.595 			"/>
		</g>
		<g>
			<polygon points="2482.773,2540.6 2486.108,2527.224 2496.149,2543.935 			"/>
		</g>
	</g>
	<g>
		<g>
			<polygon points="2509.96,2562.951 2509.96,2543.03 2490.039,2562.951 			"/>
		</g>
		<g>
			<polygon points="2490.02,2562.948 2496.176,2544.001 2471.074,2556.792 			"/>
		</g>
		<g>
			<polygon points="2471.056,2556.783 2482.766,2540.666 2454.94,2545.073 			"/>
		</g>
		<g>
			<polygon points="2454.926,2545.06 2471.042,2533.35 2443.217,2528.943 			"/>
		</g>
		<g>
			<polygon points="2443.208,2528.926 2462.154,2522.77 2437.052,2509.98 			"/>
		</g>
		<g>
			<polygon points="2437.049,2509.96 2456.97,2509.96 2437.049,2490.04 			"/>
		</g>
		<g>
			<polygon points="2437.052,2490.02 2455.998,2496.176 2443.208,2471.074 			"/>
		</g>
		<g>
			<polygon points="2443.217,2471.057 2459.333,2482.766 2454.926,2454.94 			"/>
		</g>
		<g>
			<polygon points="2454.94,2454.927 2466.649,2471.043 2471.056,2443.217 			"/>
		</g>
		<g>
			<polygon points="2471.074,2443.208 2477.23,2462.154 2490.02,2437.052 			"/>
		</g>
		<g>
			<polygon points="2490.039,2437.049 2490.039,2456.97 2509.96,2437.049 			"/>
		</g>
		<g>
			<polygon points="2509.979,2437.052 2503.823,2455.999 2528.926,2443.208 			"/>
		</g>
		<g>
			<polygon points="2528.943,2443.217 2517.233,2459.334 2545.059,2454.927 			"/>
		</g>
		<g>
			<polygon points="2545.073,2454.94 2528.957,2466.65 2556.782,2471.057 			"/>
		</g>
		<g>
			<polygon points="2556.791,2471.074 2537.845,2477.23 2562.947,2490.02 			"/>
		</g>
		<g>
			<polygon points="2562.95,2490.039 2543.029,2490.039 2562.95,2509.96 			"/>
		</g>
		<g>
			<polygon points="2562.947,2509.98 2544.001,2503.824 2556.791,2528.926 			"/>
		</g>
		<g>
			<polygon points="2556.782,2528.943 2540.666,2517.234 2545.073,2545.06 			"/>
		</g>
		<g>
			<polygon points="2545.059,2545.073 2533.35,2528.957 2528.943,2556.783 			"/>
		</g>
		<g>
			<polygon points="2528.926,2556.792 2522.77,2537.845 2509.979,2562.948 			"/>
		</g>
	</g>
	<g>
		<g>
			<polygon points="2491.987,2591.752 2489.978,2563.034 2520.704,2589.744 			"/>
		</g>
		<g>
			<polygon points="2520.731,2589.737 2509.948,2563.046 2547.423,2578.953 			"/>
		</g>
		<g>
			<polygon points="2547.447,2578.939 2528.943,2556.886 2569.5,2560.434 			"/>
		</g>
		<g>
			<polygon points="2569.518,2560.413 2545.105,2545.158 2584.773,2536 			"/>
		</g>
		<g>
			<polygon points="2584.784,2535.974 2556.852,2529.009 2591.749,2508.041 			"/>
		</g>
		<g>
			<polygon points="2591.751,2508.013 2563.034,2510.021 2589.743,2479.295 			"/>
		</g>
		<g>
			<polygon points="2589.737,2479.268 2563.045,2490.052 2578.953,2452.576 			"/>
		</g>
		<g>
			<polygon points="2578.938,2452.552 2556.885,2471.057 2560.434,2430.5 			"/>
		</g>
		<g>
			<polygon points="2560.413,2430.481 2545.157,2454.895 2535.999,2415.226 			"/>
		</g>
		<g>
			<polygon points="2535.973,2415.215 2529.009,2443.148 2508.041,2408.251 			"/>
		</g>
		<g>
			<polygon points="2508.013,2408.248 2510.021,2436.966 2479.295,2410.256 			"/>
		</g>
		<g>
			<polygon points="2479.268,2410.263 2490.052,2436.954 2452.576,2421.047 			"/>
		</g>
		<g>
			<polygon points="2452.552,2421.061 2471.056,2443.114 2430.499,2439.566 			"/>
		</g>
		<g>
			<polygon points="2430.481,2439.587 2454.894,2454.842 2415.226,2464 			"/>
		</g>
		<g>
			<polygon points="2415.215,2464.026 2443.147,2470.991 2408.25,2491.959 			"/>
		</g>
		<g>
			<polygon points="2408.248,2491.987 2436.965,2489.979 2410.256,2520.705 			"/>
		</g>
		<g>
			<polygon points="2410.262,2520.732 2436.954,2509.948 2421.046,2547.423 			"/>
		</g>
		<g>
			<polygon points="2421.061,2547.448 2443.114,2528.943 2439.565,2569.5 			"/>
		</g>
		<g>
			<polygon points="2439.587,2569.519 2454.842,2545.105 2464,2584.774 			"/>
		</g>
		<g>
			<polygon points="2464.026,2584.785 2470.99,2556.852 2491.958,2591.749 			"/>
		</g>
	</g>
	<g>
		<g>
			<polygon points="2520.8,2631.458 2520.8,2589.858 2479.199,2631.458 			"/>
		</g>
		<g>
			<polygon points="2479.159,2631.452 2492.014,2591.887 2439.594,2618.597 			"/>
		</g>
		<g>
			<polygon points="2439.558,2618.578 2464.01,2584.922 2405.902,2594.126 			"/>
		</g>
		<g>
			<polygon points="2405.874,2594.097 2439.529,2569.645 2381.421,2560.441 			"/>
		</g>
		<g>
			<polygon points="2381.403,2560.405 2420.968,2547.55 2368.547,2520.84 			"/>
		</g>
		<g>
			<polygon points="2368.541,2520.8 2410.142,2520.8 2368.541,2479.2 			"/>
		</g>
		<g>
			<polygon points="2368.547,2479.159 2408.112,2492.015 2381.403,2439.595 			"/>
		</g>
		<g>
			<polygon points="2381.421,2439.558 2415.077,2464.011 2405.874,2405.903 			"/>
		</g>
		<g>
			<polygon points="2405.902,2405.874 2430.355,2439.53 2439.558,2381.422 			"/>
		</g>
		<g>
			<polygon points="2439.594,2381.403 2452.45,2420.968 2479.159,2368.548 			"/>
		</g>
		<g>
			<polygon points="2479.199,2368.542 2479.199,2410.142 2520.8,2368.542 			"/>
		</g>
		<g>
			<polygon points="2520.84,2368.548 2507.985,2408.113 2560.405,2381.403 			"/>
		</g>
		<g>
			<polygon points="2560.441,2381.422 2535.989,2415.077 2594.097,2405.874 			"/>
		</g>
		<g>
			<polygon points="2594.125,2405.903 2560.47,2430.355 2618.578,2439.559 			"/>
		</g>
		<g>
			<polygon points="2618.596,2439.595 2579.031,2452.45 2631.452,2479.159 			"/>
		</g>
		<g>
			<polygon points="2631.458,2479.199 2589.857,2479.199 2631.458,2520.8 			"/>
		</g>
		<g>
			<polygon points="2631.451,2520.841 2591.887,2507.985 2618.596,2560.405 			"/>
		</g>
		<g>
			<polygon points="2618.578,2560.441 2584.922,2535.989 2594.125,2594.097 			"/>
		</g>
		<g>
			<polygon points="2594.097,2594.126 2569.644,2560.47 2560.441,2618.578 			"/>
		</g>
		<g>
			<polygon points="2560.405,2618.597 2547.55,2579.032 2520.84,2631.452 			"/>
		</g>
	</g>
	<g>
		<g>
			<polygon points="2483.266,2691.603 2479.073,2631.633 2543.236,2687.409 			"/>
		</g>
		<g>
			<polygon points="2543.294,2687.396 2520.773,2631.657 2599.033,2664.876 			"/>
		</g>
		<g>
			<polygon points="2599.083,2664.846 2560.441,2618.793 2645.135,2626.203 			"/>
		</g>
		<g>
			<polygon points="2645.174,2626.159 2594.192,2594.302 2677.031,2575.177 			"/>
		</g>
		<g>
			<polygon points="2677.054,2575.123 2618.723,2560.579 2691.597,2516.792 			"/>
		</g>
		<g>
			<polygon points="2691.603,2516.734 2631.632,2520.927 2687.409,2456.763 			"/>
		</g>
		<g>
			<polygon points="2687.396,2456.706 2631.656,2479.226 2664.875,2400.967 			"/>
		</g>
		<g>
			<polygon points="2664.845,2400.916 2618.793,2439.559 2626.203,2354.864 			"/>
		</g>
		<g>
			<polygon points="2626.159,2354.826 2594.302,2405.808 2575.177,2322.969 			"/>
		</g>
		<g>
			<polygon points="2575.123,2322.946 2560.579,2381.277 2516.792,2308.402 			"/>
		</g>
		<g>
			<polygon points="2516.733,2308.397 2520.927,2368.367 2456.763,2312.591 			"/>
		</g>
		<g>
			<polygon points="2456.706,2312.604 2479.226,2368.343 2400.966,2335.124 			"/>
		</g>
		<g>
			<polygon points="2400.916,2335.154 2439.558,2381.206 2354.864,2373.796 			"/>
		</g>
		<g>
			<polygon points="2354.825,2373.841 2405.807,2405.698 2322.969,2424.823 			"/>
		</g>
		<g>
			<polygon points="2322.946,2424.877 2381.277,2439.42 2308.402,2483.208 			"/>
		</g>
		<g>
			<polygon points="2308.396,2483.266 2368.367,2479.073 2312.59,2543.237 			"/>
		</g>
		<g>
			<polygon points="2312.604,2543.294 2368.343,2520.774 2335.124,2599.033 			"/>
		</g>
		<g>
			<polygon points="2335.154,2599.083 2381.206,2560.441 2373.796,2645.136 			"/>
		</g>
		<g>
			<polygon points="2373.841,2645.174 2405.698,2594.192 2424.823,2677.031 			"/>
		</g>
		<g>
			<polygon points="2424.876,2677.054 2439.42,2618.723 2483.207,2691.598 			"/>
		</g>
	</g>
	<g>
		<g>
			<polygon points="2543.437,2774.522 2543.437,2687.648 2456.563,2774.522 			"/>
		</g>
		<g>
			<polygon points="2456.479,2774.508 2483.324,2691.886 2373.857,2747.663 			"/>
		</g>
		<g>
			<polygon points="2373.781,2747.624 2424.844,2677.342 2303.499,2696.561 			"/>
		</g>
		<g>
			<polygon points="2303.439,2696.501 2373.721,2645.438 2252.375,2626.219 			"/>
		</g>
		<g>
			<polygon points="2252.337,2626.143 2334.959,2599.297 2225.491,2543.521 			"/>
		</g>
		<g>
			<polygon points="2225.478,2543.437 2312.352,2543.437 2225.478,2456.563 			"/>
		</g>
		<g>
			<polygon points="2225.491,2456.479 2308.113,2483.325 2252.337,2373.857 			"/>
		</g>
		<g>
			<polygon points="2252.375,2373.781 2322.658,2424.844 2303.438,2303.499 			"/>
		</g>
		<g>
			<polygon points="2303.499,2303.439 2354.562,2373.721 2373.781,2252.376 			"/>
		</g>
		<g>
			<polygon points="2373.857,2252.337 2400.702,2334.959 2456.479,2225.492 			"/>
		</g>
		<g>
			<polygon points="2456.563,2225.478 2456.563,2312.352 2543.437,2225.478 			"/>
		</g>
		<g>
			<polygon points="2543.52,2225.492 2516.675,2308.114 2626.142,2252.337 			"/>
		</g>
		<g>
			<polygon points="2626.218,2252.376 2575.155,2322.658 2696.5,2303.439 			"/>
		</g>
		<g>
			<polygon points="2696.56,2303.499 2626.278,2354.562 2747.624,2373.781 			"/>
		</g>
		<g>
			<polygon points="2747.662,2373.857 2665.04,2400.703 2774.508,2456.479 			"/>
		</g>
		<g>
			<polygon points="2774.521,2456.563 2687.647,2456.563 2774.521,2543.437 			"/>
		</g>
		<g>
			<polygon points="2774.507,2543.521 2691.885,2516.675 2747.662,2626.143 			"/>
		</g>
		<g>
			<polygon points="2747.624,2626.219 2677.341,2575.155 2696.561,2696.501 			"/>
		</g>
		<g>
			<polygon points="2696.5,2696.561 2645.437,2626.278 2626.218,2747.624 			"/>
		</g>
		<g>
			<polygon points="2626.142,2747.663 2599.297,2665.041 2543.521,2774.508 			"/>
		</g>
	</g>
	<g>
		<g>
			<polygon points="2465.055,2900.12 2456.298,2774.885 2590.29,2891.363 			"/>
		</g>
		<g>
			<polygon points="2590.409,2891.335 2543.381,2774.936 2706.808,2844.307 			"/>
		</g>
		<g>
			<polygon points="2706.914,2844.243 2626.218,2748.073 2803.083,2763.547 			"/>
		</g>
		<g>
			<polygon points="2803.163,2763.455 2696.699,2696.929 2869.689,2656.991 			"/>
		</g>
		<g>
			<polygon points="2869.738,2656.877 2747.926,2626.506 2900.108,2535.066 			"/>
		</g>
		<g>
			<polygon points="2900.119,2534.944 2774.885,2543.702 2891.362,2409.71 			"/>
		</g>
		<g>
			<polygon points="2891.334,2409.59 2774.935,2456.618 2844.306,2293.191 			"/>
		</g>
		<g>
			<polygon points="2844.243,2293.086 2748.073,2373.782 2763.547,2196.917 			"/>
		</g>
		<g>
			<polygon points="2763.455,2196.836 2696.928,2303.3 2656.99,2130.31 			"/>
		</g>
		<g>
			<polygon points="2656.877,2130.262 2626.506,2252.073 2535.066,2099.891 			"/>
		</g>
		<g>
			<polygon points="2534.944,2099.88 2543.701,2225.115 2409.709,2108.637 			"/>
		</g>
		<g>
			<polygon points="2409.59,2108.665 2456.618,2225.064 2293.191,2155.693 			"/>
		</g>
		<g>
			<polygon points="2293.085,2155.757 2373.781,2251.926 2196.916,2236.452 			"/>
		</g>
		<g>
			<polygon points="2196.836,2236.545 2303.3,2303.071 2130.31,2343.009 			"/>
		</g>
		<g>
			<polygon points="2130.262,2343.122 2252.073,2373.493 2099.891,2464.933 			"/>
		</g>
		<g>
			<polygon points="2099.88,2465.056 2225.114,2456.298 2108.637,2590.29 			"/>
		</g>
		<g>
			<polygon points="2108.665,2590.41 2225.064,2543.381 2155.694,2706.809 			"/>
		</g>
		<g>
			<polygon points="2155.756,2706.914 2251.926,2626.218 2236.452,2803.083 			"/>
		</g>
		<g>
			<polygon points="2236.545,2803.164 2303.071,2696.699 2343.009,2869.69 			"/>
		</g>
		<g>
			<polygon points="2343.122,2869.738 2373.493,2747.927 2464.933,2900.109 			"/>
		</g>
	</g>
	<g>
		<g>
			<polygon points="2590.708,3073.277 2590.708,2891.86 2409.291,3073.277 			"/>
		</g>
		<g>
			<polygon points="2409.116,3073.249 2465.177,2900.711 2236.578,3017.188 			"/>
		</g>
		<g>
			<polygon points="2236.42,3017.107 2343.054,2870.338 2089.651,2910.473 			"/>
		</g>
		<g>
			<polygon points="2089.526,2910.348 2236.295,2803.714 1982.892,2763.579 			"/>
		</g>
		<g>
			<polygon points="1982.812,2763.42 2155.349,2707.359 1926.751,2590.883 			"/>
		</g>
		<g>
			<polygon points="1926.723,2590.708 2108.139,2590.708 1926.723,2409.292 			"/>
		</g>
		<g>
			<polygon points="1926.751,2409.116 2099.288,2465.177 1982.812,2236.579 			"/>
		</g>
		<g>
			<polygon points="1982.892,2236.421 2129.661,2343.055 2089.526,2089.652 			"/>
		</g>
		<g>
			<polygon points="2089.651,2089.526 2196.285,2236.295 2236.42,1982.892 			"/>
		</g>
		<g>
			<polygon points="2236.579,1982.812 2292.639,2155.349 2409.116,1926.751 			"/>
		</g>
		<g>
			<polygon points="2409.291,1926.723 2409.291,2108.14 2590.708,1926.723 			"/>
		</g>
		<g>
			<polygon points="2590.883,1926.751 2534.822,2099.289 2763.42,1982.812 			"/>
		</g>
		<g>
			<polygon points="2763.579,1982.892 2656.945,2129.661 2910.348,2089.526 			"/>
		</g>
		<g>
			<polygon points="2910.473,2089.652 2763.704,2196.286 3017.107,2236.421 			"/>
		</g>
		<g>
			<polygon points="3017.187,2236.579 2844.65,2292.64 3073.248,2409.116 			"/>
		</g>
		<g>
			<polygon points="3073.276,2409.292 2891.86,2409.292 3073.276,2590.708 			"/>
		</g>
		<g>
			<polygon points="3073.248,2590.883 2900.71,2534.823 3017.187,2763.421 			"/>
		</g>
		<g>
			<polygon points="3017.107,2763.579 2870.338,2656.945 2910.473,2910.348 			"/>
		</g>
		<g>
			<polygon points="2910.347,2910.473 2803.713,2763.704 2763.578,3017.107 			"/>
		</g>
		<g>
			<polygon points="2763.421,3017.188 2707.36,2844.65 2590.883,3073.249 			"/>
		</g>
	</g>
	<g>
		<g>
			<polygon points="2427.026,3335.561 2408.739,3074.036 2688.551,3317.273 			"/>
		</g>
		<g>
			<polygon points="2688.8,3317.215 2590.592,3074.142 2931.873,3219.007 			"/>
		</g>
		<g>
			<polygon points="2932.093,3218.874 2763.578,3018.046 3132.922,3050.359 			"/>
		</g>
		<g>
			<polygon points="3133.089,3050.167 2910.762,2911.242 3272.014,2827.84 			"/>
		</g>
		<g>
			<polygon points="3272.114,2827.603 3017.739,2764.18 3335.537,2573.228 			"/>
		</g>
		<g>
			<polygon points="3335.56,2572.973 3074.036,2591.261 3317.272,2311.449 			"/>
		</g>
		<g>
			<polygon points="3317.214,2311.199 3074.141,2409.407 3219.006,2068.126 			"/>
		</g>
		<g>
			<polygon points="3218.875,2067.906 3018.046,2236.421 3050.36,1867.078 			"/>
		</g>
		<g>
			<polygon points="3050.166,1866.91 2911.241,2089.237 2827.84,1727.985 			"/>
		</g>
		<g>
			<polygon points="2827.604,1727.885 2764.181,1982.26 2573.228,1664.462 			"/>
		</g>
		<g>
			<polygon points="2572.973,1664.44 2591.26,1925.964 2311.449,1682.727 			"/>
		</g>
		<g>
			<polygon points="2311.199,1682.785 2409.407,1925.858 2068.126,1780.993 			"/>
		</g>
		<g>
			<polygon points="2067.906,1781.125 2236.421,1981.953 1867.078,1949.64 			"/>
		</g>
		<g>
			<polygon points="1866.91,1949.833 2089.237,2088.758 1727.985,2172.16 			"/>
		</g>
		<g>
			<polygon points="1727.885,2172.396 1982.261,2235.819 1664.462,2426.771 			"/>
		</g>
		<g>
			<polygon points="1664.439,2427.026 1925.963,2408.739 1682.727,2688.551 			"/>
		</g>
		<g>
			<polygon points="1682.786,2688.8 1925.859,2590.592 1780.994,2931.873 			"/>
		</g>
		<g>
			<polygon points="1781.124,2932.093 1981.952,2763.578 1949.639,3132.921 			"/>
		</g>
		<g>
			<polygon points="1949.834,3133.089 2088.759,2910.762 2172.161,3272.014 			"/>
		</g>
		<g>
			<polygon points="2172.395,3272.114 2235.818,3017.739 2426.771,3335.537 			"/>
		</g>
	</g>
	<g>
		<g>
			<polygon points="2689.423,3697.16 2689.423,3318.312 2310.575,3697.16 			"/>
		</g>
		<g>
			<polygon points="2310.209,3697.102 2427.28,3336.796 1949.904,3580.031 			"/>
		</g>
		<g>
			<polygon points="1949.573,3579.862 2172.255,3273.367 1643.079,3357.181 			"/>
		</g>
		<g>
			<polygon points="1642.818,3356.92 1949.313,3134.239 1420.137,3050.426 			"/>
		</g>
		<g>
			<polygon points="1419.969,3050.094 1780.274,2933.024 1302.898,2689.788 			"/>
		</g>
		<g>
			<polygon points="1302.84,2689.424 1681.688,2689.424 1302.84,2310.576 			"/>
		</g>
		<g>
			<polygon points="1302.898,2310.21 1663.204,2427.281 1419.969,1949.904 			"/>
		</g>
		<g>
			<polygon points="1420.136,1949.574 1726.631,2172.255 1642.818,1643.079 			"/>
		</g>
		<g>
			<polygon points="1643.079,1642.818 1865.761,1949.312 1949.574,1420.137 			"/>
		</g>
		<g>
			<polygon points="1949.904,1419.969 2066.975,1780.275 2310.21,1302.898 			"/>
		</g>
		<g>
			<polygon points="2310.575,1302.84 2310.575,1681.688 2689.423,1302.84 			"/>
		</g>
		<g>
			<polygon points="2689.789,1302.898 2572.719,1663.204 3050.095,1419.969 			"/>
		</g>
		<g>
			<polygon points="3050.425,1420.137 2827.744,1726.631 3356.92,1642.818 			"/>
		</g>
		<g>
			<polygon points="3357.181,1643.08 3050.686,1865.761 3579.862,1949.574 			"/>
		</g>
		<g>
			<polygon points="3580.03,1949.904 3219.724,2066.975 3697.1,2310.21 			"/>
		</g>
		<g>
			<polygon points="3697.159,2310.576 3318.311,2310.576 3697.159,2689.424 			"/>
		</g>
		<g>
			<polygon points="3697.099,2689.79 3336.793,2572.719 3580.029,3050.095 			"/>
		</g>
		<g>
			<polygon points="3579.863,3050.425 3273.369,2827.744 3357.182,3356.92 			"/>
		</g>
		<g>
			<polygon points="3356.918,3357.181 3134.237,3050.687 3050.423,3579.863 			"/>
		</g>
		<g>
			<polygon points="3050.095,3580.03 2933.025,3219.724 2689.79,3697.101 			"/>
		</g>
	</g>
	<g>
		<g>
			<polygon points="2347.612,4244.88 2309.422,3698.746 2893.746,4206.691 			"/>
		</g>
		<g>
			<polygon points="2894.268,4206.57 2689.182,3698.966 3401.871,4001.485 			"/>
		</g>
		<g>
			<polygon points="3402.33,4001.208 3050.424,3581.823 3821.715,3649.302 			"/>
		</g>
		<g>
			<polygon points="3822.065,3648.9 3357.785,3358.786 4112.179,3184.621 			"/>
		</g>
		<g>
			<polygon points="4112.388,3184.126 3581.182,3051.681 4244.833,2652.92 			"/>
		</g>
		<g>
			<polygon points="4244.88,2652.388 3698.745,2690.578 4206.69,2106.254 			"/>
		</g>
		<g>
			<polygon points="4206.569,2105.732 3698.966,2310.818 4001.484,1598.129 			"/>
		</g>
		<g>
			<polygon points="4001.209,1597.67 3581.824,1949.575 3649.303,1178.285 			"/>
		</g>
		<g>
			<polygon points="3648.899,1177.934 3358.785,1642.213 3184.62,887.82 			"/>
		</g>
		<g>
			<polygon points="3184.127,887.611 3051.682,1418.817 2652.921,755.167 			"/>
		</g>
		<g>
			<polygon points="2652.388,755.119 2690.578,1301.254 2106.254,793.309 			"/>
		</g>
		<g>
			<polygon points="2105.732,793.43 2310.817,1301.034 1598.129,998.515 			"/>
		</g>
		<g>
			<polygon points="1597.669,998.79 1949.575,1418.175 1178.284,1350.696 			"/>
		</g>
		<g>
			<polygon points="1177.935,1351.1 1642.214,1641.214 887.821,1815.379 			"/>
		</g>
		<g>
			<polygon points="887.612,1815.872 1418.818,1948.317 755.168,2347.078 			"/>
		</g>
		<g>
			<polygon points="755.119,2347.611 1301.254,2309.422 793.309,2893.746 			"/>
		</g>
		<g>
			<polygon points="793.432,2894.267 1301.036,2689.182 998.518,3401.87 			"/>
		</g>
		<g>
			<polygon points="998.789,3402.329 1418.174,3050.423 1350.695,3821.714 			"/>
		</g>
		<g>
			<polygon points="1351.102,3822.065 1641.216,3357.785 1815.382,4112.179 			"/>
		</g>
		<g>
			<polygon points="1815.871,4112.388 1948.316,3581.181 2347.077,4244.832 			"/>
		</g>
	</g>
	<g>
		<g>
			<polygon points="2895.568,5000 2895.568,4208.861 2104.429,5000 			"/>
		</g>
		<g>
			<polygon points="2103.665,4999.878 2348.141,4247.46 1351.247,4755.403 			"/>
		</g>
		<g>
			<polygon points="1350.558,4755.049 1815.578,4115.004 710.513,4290.03 			"/>
		</g>
		<g>
			<polygon points="709.968,4289.486 1350.013,3824.466 244.949,3649.441 			"/>
		</g>
		<g>
			<polygon points="244.597,3648.748 997.015,3404.273 0.122,2896.331 			"/>
		</g>
		<g>
			<polygon points="0,2895.569 791.139,2895.569 0,2104.43 			"/>
		</g>
		<g>
			<polygon points="0.122,2103.666 752.54,2348.142 244.597,1351.248 			"/>
		</g>
		<g>
			<polygon points="244.948,1350.559 884.993,1815.579 709.967,710.514 			"/>
		</g>
		<g>
			<polygon points="710.514,709.967 1175.534,1350.012 1350.559,244.948 			"/>
		</g>
		<g>
			<polygon points="1351.249,244.597 1595.724,997.015 2103.667,0.122 			"/>
		</g>
		<g>
			<polygon points="2104.43,0 2104.43,791.139 2895.569,0 			"/>
		</g>
		<g>
			<polygon points="2896.333,0.122 2651.857,752.54 3648.751,244.597 			"/>
		</g>
		<g>
			<polygon points="3649.44,244.948 3184.42,884.993 4289.485,709.967 			"/>
		</g>
		<g>
			<polygon points="4290.03,710.514 3649.985,1175.534 4755.049,1350.559 			"/>
		</g>
		<g>
			<polygon points="4755.4,1351.249 4002.982,1595.724 4999.875,2103.667 			"/>
		</g>
		<g>
			<polygon points="4999.999,2104.43 4208.86,2104.43 4999.999,2895.569 			"/>
		</g>
		<g>
			<polygon points="4999.874,2896.333 4247.456,2651.857 4755.398,3648.751 			"/>
		</g>
		<g>
			<polygon points="4755.052,3649.439 4115.007,3184.419 4290.033,4289.484 			"/>
		</g>
		<g>
			<polygon points="4289.481,4290.031 3824.461,3649.986 3649.436,4755.05 			"/>
		</g>
		<g>
			<polygon points="3648.751,4755.401 3404.276,4002.983 2896.333,4999.876 			"/>
		</g>
	</g>
</g>
</svg>
